<?xml version="1.0" encoding="utf-8"?>
<!-- Designed by Vexels.com - 2017 All Rights Reserved - https://vexels.com/terms-and-conditions/  -->

<svg version="1.1" id="Layer_1" xmlns="http://www.w3.org/2000/svg" xmlns:xlink="http://www.w3.org/1999/xlink" x="0px" y="0px"
	 width="1200px" height="1200px" viewBox="0 0 1200 1200" enable-background="new 0 0 1200 1200" xml:space="preserve">
<g>
	<g>
		<g>
			<path fill="#2F231E" d="M930.855,748.318H183.994c-9.297,0-17.509-5.905-20.433-14.713L51.095,394.016
				c-2.028-6.064-1.214-12.744,2.228-18.173c3.411-5.449,9.067-9.069,15.42-9.884l914.825-116.98
				c6.673-0.914,13.184,1.391,17.886,6.064c4.742,4.673,6.949,11.236,6.194,17.837l-55.427,456.548
				C950.897,740.226,941.751,748.318,930.855,748.318z M199.473,705.348h712.411l49.78-410.258l-861.583,110.2L199.473,705.348z"/>
		</g>
	</g>
	<g>
		<g>
			<path fill="#2F231E" d="M1003.988,282.564l-35.344-24.538c1.462-2.028,35.733-50.546,100.07-64.266l8.927,42.035
				C1030.516,245.876,1004.229,282.167,1003.988,282.564z"/>
		</g>
	</g>
	<g>
		<g>
			<path fill="#2F231E" d="M1150,210.404c0,32.63-26.405,59.055-59.096,59.055c-32.591,0-58.998-26.425-58.998-59.055
				c0-32.611,26.407-59.057,58.998-59.057C1123.595,151.347,1150,177.793,1150,210.404z"/>
		</g>
	</g>
	<g>
		<g>
			<path fill="#2F231E" d="M76.765,909.462c-5.467,0-10.985-2.069-15.141-6.204c-8.46-8.391-8.501-21.993-0.13-30.422
				c44.881-45.199,112.934-45.696,115.779-45.696h771.706l-37.97-92.104c-4.504-10.977,0.707-23.563,11.694-28.038
				c10.947-4.553,23.503,0.676,28.067,11.653l50.188,121.773c2.686,6.581,1.959,14.176-2.038,20.121
				c-3.987,5.946-10.708,9.566-17.837,9.566H177.273c-0.468,0-53.211,0.694-85.254,33.008
				C87.822,907.373,82.275,909.462,76.765,909.462z"/>
		</g>
	</g>
	<g>
		<g>
			<path fill="#2F231E" d="M977.483,979.832c0,38.001-30.811,68.821-68.821,68.821c-38.009,0-68.82-30.819-68.82-68.821
				c0-38.017,30.811-68.8,68.82-68.8C946.672,911.032,977.483,941.815,977.483,979.832z"/>
		</g>
	</g>
	<g>
		<g>
			<path fill="#2F231E" d="M305.557,979.832c0,38.001-30.772,68.821-68.821,68.821c-37.999,0-68.769-30.819-68.769-68.821
				c0-38.017,30.77-68.8,68.769-68.8C274.785,911.032,305.557,941.815,305.557,979.832z"/>
		</g>
	</g>
	<g>
		<g>
			<polygon fill="#2F231E" points="102.875,489.244 100.578,467.906 979.939,375.086 982.216,396.443 			"/>
		</g>
	</g>
	<g>
		<g>
			<polygon fill="#2F231E" points="139.382,568.363 137.932,546.928 976.728,490.834 978.16,512.289 			"/>
		</g>
	</g>
	<g>
		<g>
			<polygon fill="#2F231E" points="250.149,729.945 145.229,379.62 165.84,373.436 270.719,723.741 			"/>
		</g>
		<g>
			<polygon fill="#2F231E" points="324.836,728.035 236.737,367.352 257.616,362.241 345.733,722.945 			"/>
		</g>
		<g>
			<polygon fill="#2F231E" points="399.6,726.187 328.324,355.082 349.423,351.047 420.658,722.11 			"/>
		</g>
		<g>
			<polygon fill="#2F231E" points="474.407,724.338 419.844,342.873 441.12,339.811 495.693,721.275 			"/>
		</g>
		<g>
			<polygon fill="#2F231E" points="549.161,722.528 511.471,330.665 532.837,328.596 570.577,720.42 			"/>
		</g>
		<g>
			<polygon fill="#2F231E" points="623.996,720.679 603.068,318.476 624.544,317.342 645.451,719.565 			"/>
		</g>
		<g>
			<polygon fill="#2F231E" points="698.842,718.869 694.706,306.306 716.202,306.106 720.317,718.689 			"/>
		</g>
		<g>
			<polygon fill="#2F231E" points="795.201,717.796 773.697,717.12 786.373,294.138 807.838,294.814 			"/>
		</g>
		<g>
			<polygon fill="#2F231E" points="870.008,716.82 848.561,715.389 878.051,282.008 899.486,283.458 			"/>
		</g>
	</g>
	<g>
		<g>
			<polygon fill="#2F231E" points="155.856,651.72 155.211,630.224 943.848,606.523 944.524,628.017 			"/>
		</g>
	</g>
	<rect x="872.822" y="889.777" fill="#2F231E" width="71.702" height="90.056"/>
	<rect x="200.894" y="889.777" fill="#2F231E" width="71.734" height="90.056"/>
</g>
</svg>
